<?xml version="1.0" standalone="no"?>
<!DOCTYPE svg PUBLIC "-//W3C//DTD SVG 20010904//EN"
 "http://www.w3.org/TR/2001/REC-SVG-20010904/DTD/svg10.dtd">
<svg version="1.0" xmlns="http://www.w3.org/2000/svg"
 width="251.000000pt" height="256.000000pt" viewBox="0 0 251.000000 256.000000"
 preserveAspectRatio="xMidYMid meet">

<g transform="translate(0.000000,256.000000) scale(0.100000,-0.100000)"
fill="#000000" stroke="none">
<path d="M0 1280 l0 -1280 174 0 174 0 7 163 c11 253 -7 576 -47 834 -11 73
-17 137 -13 142 3 6 21 10 40 9 19 -1 37 1 39 3 11 11 27 188 23 246 -5 63
-17 100 -17 53 0 -12 -7 -28 -15 -34 -8 -6 -16 -22 -17 -36 -2 -14 -9 -34 -15
-44 -10 -19 -11 -19 -17 1 -3 11 -19 26 -34 34 -15 8 -31 20 -35 26 -4 7 -15
13 -22 13 -8 0 -15 5 -15 11 0 6 -9 23 -20 37 -19 24 -20 33 -13 121 4 53 8
219 8 369 l0 273 22 -4 c18 -3 29 5 53 43 16 26 30 52 30 58 0 7 7 12 15 12
10 0 15 -10 15 -33 0 -19 6 -47 14 -63 8 -16 22 -81 30 -144 9 -63 21 -145 26
-182 6 -37 10 -103 10 -148 0 -76 1 -81 25 -92 14 -6 25 -17 25 -23 0 -7 12
-15 26 -18 19 -3 28 1 34 17 7 16 3 26 -16 44 -14 12 -22 22 -18 22 3 0 1 7
-6 15 -10 12 -10 15 1 15 11 0 11 2 -1 10 -11 7 -16 36 -18 125 -4 102 -2 115
13 115 9 0 14 4 10 9 -3 5 4 12 15 16 11 4 18 10 16 13 -2 4 2 15 9 25 11 15
13 16 19 2 3 -8 12 -15 19 -15 16 0 35 -58 44 -130 3 -28 9 -50 12 -50 4 0 7
-12 6 -27 0 -14 6 -28 13 -30 9 -3 11 7 9 37 -3 31 1 43 14 50 9 5 20 25 23
45 4 19 12 35 17 35 14 0 48 41 49 58 0 6 7 12 15 12 8 0 15 4 15 10 0 5 17
12 38 15 20 4 47 10 59 15 16 7 26 5 36 -5 11 -10 17 -11 26 -2 8 8 11 8 11
-2 0 -7 5 -9 11 -5 8 4 9 -3 4 -24 -3 -18 -2 -33 4 -37 6 -3 11 2 11 13 0 11
6 25 13 31 11 8 20 2 43 -26 16 -20 28 -41 26 -46 -2 -6 4 -25 13 -43 12 -26
16 -65 16 -161 0 -69 -4 -129 -9 -132 -5 -3 -12 -15 -16 -26 -6 -16 -9 -17
-17 -5 -7 11 -8 7 -3 -12 5 -22 3 -28 -10 -28 -9 0 -16 -5 -16 -12 0 -7 -7 -5
-18 5 -9 8 -30 19 -47 23 -29 7 -29 6 -14 -12 40 -46 77 -136 49 -119 -19 12
-10 -19 13 -43 16 -19 18 -24 5 -19 -15 5 -54 -26 -52 -42 3 -25 -10 -40 -31
-35 -17 4 -26 0 -35 -15 -6 -12 -19 -21 -29 -21 -15 0 -19 11 -25 68 -9 88
-13 116 -16 122 -6 13 -18 -62 -19 -122 -2 -95 -28 -100 -45 -8 -5 27 -11 36
-26 36 -11 0 -20 -6 -20 -13 0 -7 4 -13 9 -13 4 0 13 -51 19 -112 5 -62 13
-121 17 -130 4 -10 3 -18 -3 -18 -5 0 -13 12 -17 27 -3 16 -20 56 -36 91 -16
34 -29 67 -29 72 0 6 -6 10 -13 10 -8 0 -22 -26 -32 -60 -10 -33 -22 -60 -27
-60 -5 0 -6 -4 -3 -10 3 -5 1 -10 -4 -10 -6 0 -11 8 -11 18 -1 114 -10 203
-24 232 -9 20 -17 65 -18 102 -2 38 -6 68 -10 68 -5 0 -8 9 -8 20 0 35 -37 25
-45 -12 -4 -18 -12 -39 -17 -45 -13 -16 0 -340 13 -349 5 -3 9 -18 9 -35 0
-16 5 -29 10 -29 6 0 10 -9 10 -20 0 -22 30 -92 45 -102 6 -4 6 -8 2 -8 -4 0
6 -20 23 -45 17 -25 27 -45 23 -45 -4 0 -3 -4 3 -8 31 -22 61 -152 34 -152 -5
0 -10 -7 -10 -15 0 -8 -4 -15 -10 -15 -5 0 -10 -5 -10 -11 0 -7 -12 -23 -27
-37 -25 -23 -27 -30 -31 -139 -3 -77 -1 -118 7 -126 6 -6 11 -45 11 -91 0 -98
-13 -91 -21 12 -9 99 -20 162 -29 162 -9 0 -19 -76 -14 -115 2 -16 9 -70 15
-120 6 -49 15 -97 20 -106 5 -10 9 -34 9 -53 0 -70 19 -35 23 42 l3 77 2 -88
c1 -61 6 -93 16 -103 12 -12 134 -14 810 -14 l795 0 -5 93 c-3 64 1 123 14
196 23 133 33 112 33 -74 0 -134 1 -139 16 -110 l16 29 21 -67 c16 -52 25 -67
40 -67 16 0 17 5 11 33 -11 47 -12 77 -3 123 4 23 8 67 9 98 3 71 19 74 20 4
1 -62 6 -54 12 20 3 39 1 52 -9 52 -10 0 -14 13 -12 48 l1 47 7 -45 7 -45 1
53 c1 28 6 52 11 52 10 0 24 -134 13 -137 -4 -2 -5 -28 -4 -58 5 -67 -6 -104
-18 -65 l-8 25 -1 -26 c-1 -15 5 -29 14 -33 8 -3 12 -12 9 -20 -3 -8 -1 -17 5
-21 6 -3 11 -27 11 -52 0 -26 2 -44 4 -42 6 6 18 70 18 96 0 13 4 20 9 17 5
-3 6 -33 2 -67 -3 -34 -2 -59 2 -55 7 7 12 30 17 78 3 35 -5 223 -9 202 -8
-39 -23 -13 -23 39 0 31 4 48 10 44 6 -3 10 -18 10 -32 0 -15 3 -23 7 -20 11
12 32 -27 34 -63 1 -31 2 -32 8 -10 l7 25 7 -25 c3 -13 9 -21 12 -18 3 3 -1
23 -9 43 -9 21 -17 58 -18 84 l-1 46 -6 -45 c-7 -50 -15 -38 -26 38 -4 30 -3
42 4 37 6 -3 11 -2 11 4 0 5 -5 13 -11 16 -6 4 -8 14 -5 22 3 8 1 11 -4 8 -11
-7 -20 24 -23 75 -2 32 0 34 28 34 27 0 30 -3 28 -30 -2 -24 -1 -26 7 -9 5 11
9 14 9 8 1 -7 5 -13 9 -13 12 0 14 58 2 65 -6 4 -7 12 -1 24 11 20 6 84 -9
111 -14 25 -12 40 3 38 7 -2 13 9 15 26 l4 29 -28 -22 c-14 -11 -30 -21 -34
-21 -5 0 -15 20 -23 44 -11 30 -12 43 -3 43 34 -1 56 4 56 13 0 6 -9 10 -20
10 -21 0 -29 20 -7 20 7 0 4 5 -5 11 -14 8 -17 19 -13 50 4 29 2 38 -6 33 -7
-4 -9 -3 -5 4 3 6 2 13 -4 17 -5 3 -10 12 -10 18 0 7 7 4 14 -5 7 -10 28 -21
47 -24 34 -6 34 -6 12 10 -29 22 -29 36 0 36 16 0 23 6 24 20 2 18 0 19 -14 5
-17 -18 -44 -17 -50 2 -2 6 12 17 31 24 20 7 36 16 36 20 0 11 -23 5 -50 -14
-48 -34 -71 -7 -28 33 25 23 38 25 58 8 8 -7 7 -4 -3 8 -9 11 -15 23 -11 26 3
3 -2 23 -11 44 -8 21 -13 45 -10 53 3 9 -4 5 -14 -9 l-20 -25 4 53 c2 29 7 63
11 75 6 19 5 20 -10 8 -14 -12 -16 -11 -16 8 0 12 3 20 8 18 4 -3 8 24 8 59 1
35 0 64 -1 64 -2 0 -11 -7 -19 -16 -13 -12 -16 -12 -16 -2 0 8 6 20 13 27 10
10 9 14 -5 22 -13 7 -16 20 -11 67 3 43 2 53 -6 42 -9 -11 -11 8 -11 80 0 52
-2 124 -5 160 -2 36 -6 111 -9 168 -2 57 -7 106 -10 109 -3 4 -6 -10 -6 -29 0
-20 -3 -50 -7 -68 -4 -24 -3 -31 5 -26 9 5 12 -19 12 -91 0 -87 -2 -95 -13
-73 -8 14 -19 24 -25 22 -7 -1 -13 8 -14 20 -1 13 -2 32 -3 43 -1 11 -3 35 -4
54 0 19 -4 32 -7 29 -3 -4 -8 -98 -10 -210 -3 -111 -6 -219 -8 -238 -2 -19 -4
-43 -5 -52 0 -11 -7 -15 -15 -12 -9 3 -22 -5 -32 -21 -13 -20 -19 -23 -25 -13
-6 9 -9 5 -10 -12 0 -23 -1 -23 -8 -5 -5 12 -1 40 10 73 10 28 14 52 8 52 -15
0 -4 150 15 194 10 25 14 51 10 77 l-7 39 -20 -38 c-27 -51 -47 -79 -47 -65 0
6 -8 10 -17 8 -10 -2 -21 -4 -25 -4 -5 -1 -8 -12 -8 -25 0 -14 -4 -28 -10 -31
-9 -6 -15 52 -10 99 4 37 -18 5 -25 -37 -8 -49 -27 -89 -20 -42 13 88 27 256
22 267 -2 7 -1 36 3 63 5 28 4 54 -1 60 -6 5 -9 4 -9 -5 0 -7 -2 -11 -5 -8 -4
3 -3 18 1 34 6 25 8 26 15 9 7 -19 8 -18 8 3 1 12 5 30 10 40 5 9 13 37 19 62
13 54 -2 78 -17 29 -10 -31 -10 -30 -5 16 3 28 12 72 20 99 18 65 18 66 -10
66 -27 0 -31 -11 -42 -105 l-7 -58 -36 40 c-37 42 -91 82 -91 67 0 -4 9 -18
21 -30 l20 -21 -24 2 c-20 3 -23 -1 -22 -26 1 -15 -2 -26 -7 -23 -4 3 -8 13
-8 22 0 15 -2 15 -10 2 -7 -11 -10 -12 -10 -2 0 9 -8 7 -27 -7 -33 -26 -40
-21 -18 13 11 16 13 26 6 26 -6 0 -11 -5 -11 -12 0 -6 -6 -3 -14 8 -13 17 -12
22 2 39 9 11 10 14 2 8 -8 -7 -21 -13 -29 -13 -9 -1 -32 -22 -52 -47 l-37 -45
20 -35 c15 -25 19 -44 15 -71 -6 -37 -6 -37 9 -12 14 25 15 24 10 -15 -14
-115 -18 -217 -7 -211 22 14 16 -164 -7 -212 -5 -9 -10 -48 -11 -87 -1 -38 -4
-83 -7 -100 -3 -16 -7 -66 -9 -110 -5 -90 -18 -183 -39 -265 -12 -47 -14 -50
-15 -22 -1 19 -5 31 -11 27 -6 -3 -10 0 -10 8 0 20 -25 28 -39 14 -9 -9 -11
-8 -6 6 5 12 2 17 -9 17 -9 0 -16 6 -16 14 0 7 -7 19 -15 26 -8 7 -15 28 -15
46 0 19 -4 34 -8 34 -9 0 -8 112 1 127 8 13 14 57 21 153 5 80 -4 64 -23 -40
-9 -52 -10 -50 -7 37 2 51 1 95 -3 98 -11 12 -26 140 -20 177 10 61 -4 233
-18 231 -17 -4 -16 5 2 24 8 8 12 19 9 25 -5 8 -11 6 -18 -3 -24 -31 -32 -17
-17 31 14 42 19 48 37 44 16 -4 23 0 27 15 3 12 1 21 -5 21 -6 0 -8 13 -3 33
3 17 7 46 7 62 1 17 3 24 6 16 3 -10 8 -7 18 10 7 13 13 18 14 12 0 -21 16
-14 28 12 l12 25 -790 0 -790 0 0 -1280z m1917 1148 c-3 -8 -6 -5 -6 6 -1 11
2 17 5 13 3 -3 4 -12 1 -19z m96 -320 c-2 -138 -5 -253 -7 -256 -3 -2 -12 3
-21 12 -14 14 -16 40 -13 183 2 99 7 168 13 170 6 1 8 25 7 52 -3 39 9 91 21
91 1 0 1 -113 0 -252z m-162 140 l1 -33 7 30 c6 26 7 28 14 10 7 -16 10 -17
17 -5 8 12 10 11 10 -5 0 -12 -5 -26 -11 -32 -14 -14 -4 -47 11 -38 15 9 12
-28 -4 -51 -8 -11 -16 -36 -18 -55 -2 -26 -8 -34 -23 -34 -15 0 -21 8 -23 30
-2 16 -12 40 -23 53 -25 32 -24 48 2 55 15 4 20 11 15 23 -8 21 3 84 15 84 5
0 10 -15 10 -32z m-421 -13 c0 -8 -4 -15 -10 -15 -5 0 -10 7 -10 15 0 8 5 15
10 15 6 0 10 -7 10 -15z m28 -87 l-1 -63 -6 55 c-4 30 -5 58 -3 63 9 19 12 2
10 -55z m881 -266 c13 -50 10 -223 -3 -257 -7 -17 -6 -17 4 -5 10 13 11 12 6
-3 -3 -10 -6 -26 -6 -34 0 -14 -3 -14 -20 2 -18 17 -20 31 -20 175 0 86 3 160
7 163 14 15 21 5 32 -41z m-342 -64 c-3 -8 -6 -5 -6 6 -1 11 2 17 5 13 3 -3 4
-12 1 -19z m103 -80 c0 -34 -4 -58 -8 -52 -8 9 -4 114 4 114 2 0 4 -28 4 -62z
m-1600 -83 c0 -14 -2 -25 -4 -25 -2 0 -6 11 -8 25 -3 14 -1 25 3 25 5 0 9 -11
9 -25z m1587 -7 c-3 -8 -6 -5 -6 6 -1 11 2 17 5 13 3 -3 4 -12 1 -19z m270
-80 c-3 -8 -6 -5 -6 6 -1 11 2 17 5 13 3 -3 4 -12 1 -19z m-21 -44 c4 -23 2
-33 -10 -37 -13 -5 -16 2 -16 40 0 52 15 49 26 -3z m-1336 -18 c0 -12 -14 5
-31 39 -8 16 -6 15 10 -4 12 -13 21 -28 21 -35z m1340 -66 c0 -16 -4 -30 -10
-30 -5 0 -10 14 -10 30 0 17 5 30 10 30 6 0 10 -13 10 -30z m-126 -99 c15 -23
26 1 26 55 0 34 4 53 10 49 6 -3 10 -28 10 -55 0 -38 -4 -52 -19 -59 -10 -6
-21 -7 -25 -4 -3 3 -6 -3 -6 -14 0 -12 7 -23 15 -27 17 -6 21 -36 4 -36 -6 0
-8 -9 -4 -21 4 -12 9 -57 11 -100 1 -44 5 -83 8 -88 8 -12 -9 -204 -29 -341
-19 -132 -40 -174 -42 -84 -1 38 -7 62 -20 77 -17 19 -17 20 0 14 14 -5 17 0
18 26 2 55 6 81 13 102 6 14 1 12 -17 -9 -14 -16 -31 -26 -38 -23 -10 4 -9 6
4 6 23 1 22 37 -2 44 -24 6 -39 66 -20 78 11 7 12 12 2 28 -8 13 -9 22 -3 26
6 3 10 17 10 30 0 12 7 25 15 29 26 10 16 26 -15 26 -28 0 -44 19 -17 21 6 1
17 2 22 4 6 1 16 3 24 3 27 3 -10 32 -43 33 -31 1 -31 1 7 11 34 9 38 14 34
35 -3 18 -1 23 9 19 9 -4 14 2 14 15 0 11 -4 17 -10 14 -11 -7 -14 84 -4 135
5 22 9 28 15 18 6 -8 9 2 9 28 0 62 14 63 21 1 3 -30 9 -59 13 -66z m196 28
c0 -6 -4 -7 -10 -4 -5 3 -10 11 -10 16 0 6 5 7 10 4 6 -3 10 -11 10 -16z m46
-136 c0 -10 -7 -23 -15 -29 -9 -7 -11 -16 -6 -25 6 -10 5 -11 -4 -3 -8 8 -7
18 5 42 18 36 22 40 20 15z m-36 -247 c0 -3 -4 -8 -10 -11 -5 -3 -10 -1 -10 4
0 6 5 11 10 11 6 0 10 -2 10 -4z m-744 -186 c17 -243 5 -592 -21 -618 -3 -3
-5 167 -5 378 1 211 5 379 9 374 5 -5 13 -65 17 -134z m346 95 c3 -23 -1 -36
-10 -40 -27 -10 -42 -5 -42 16 0 11 4 18 9 15 5 -3 12 5 15 19 9 36 23 31 28
-10z m408 20 c0 -8 -2 -15 -4 -15 -2 0 -6 7 -10 15 -3 8 -1 15 4 15 6 0 10 -7
10 -15z m-603 -87 c-2 -18 -4 -6 -4 27 0 33 2 48 4 33 2 -15 2 -42 0 -60z
m465 -12 c-9 -18 -11 -16 -11 19 0 33 1 37 10 21 8 -12 8 -25 1 -40z m178 -57
c0 -6 -4 -7 -10 -4 -5 3 -10 11 -10 16 0 6 5 7 10 4 6 -3 10 -11 10 -16z m-23
-14 c9 -25 -2 -27 -22 -5 -17 18 -17 20 -1 20 9 0 19 -7 23 -15z m-164 -58
c-3 -5 1 -13 8 -18 12 -8 12 -11 -1 -19 -23 -15 -31 2 -23 56 6 46 7 47 14 20
5 -16 6 -34 2 -39z m156 -7 c3 -25 3 -25 -18 -6 -26 23 -27 39 -3 34 9 -2 19
-14 21 -28z m40 -6 c7 -19 10 -38 7 -41 -3 -4 -6 1 -6 10 0 10 -4 17 -10 17
-5 0 -7 -8 -3 -17 3 -10 3 -15 -2 -11 -10 9 -16 78 -6 78 4 0 13 -16 20 -36z
m-179 -54 c12 -7 12 -12 2 -22 -6 -6 -12 -20 -12 -31 0 -26 -24 -16 -28 12 -7
44 8 60 38 41z m137 -6 c-3 -3 -12 -4 -19 -1 -8 3 -5 6 6 6 11 1 17 -2 13 -5z
m-53 -49 c-4 -8 -10 -15 -15 -15 -4 0 -6 7 -3 15 4 8 10 15 15 15 4 0 6 -7 3
-15z m-96 -37 c14 -14 16 -100 3 -114 -9 -9 -15 -49 -11 -69 8 -36 -3 -80 -18
-71 -12 7 -6 266 6 266 4 0 13 -5 20 -12z m89 -45 c-3 -10 -5 -4 -5 12 0 17 2
24 5 18 2 -7 2 -21 0 -30z m48 -57 c5 -34 4 -46 -4 -42 -6 4 -11 28 -11 53 0
58 7 53 15 -11z m-127 -228 c-1 -52 -4 -64 -9 -43 -10 46 -10 115 0 115 6 0 9
-33 9 -72z m119 5 c-3 -10 -5 -4 -5 12 0 17 2 24 5 18 2 -7 2 -21 0 -30z"/>
<path d="M2130 944 c0 -8 5 -12 10 -9 6 4 8 11 5 16 -9 14 -15 11 -15 -7z"/>
<path d="M2281 434 c0 -11 3 -14 6 -6 3 7 2 16 -1 19 -3 4 -6 -2 -5 -13z"/>
<path d="M2126 2545 c-9 -26 -7 -32 5 -12 6 10 9 21 6 23 -2 3 -7 -2 -11 -11z"/>
<path d="M2272 2530 c0 -19 2 -27 5 -17 2 9 2 25 0 35 -3 9 -5 1 -5 -18z"/>
<path d="M2357 2514 c-2 -26 -10 -50 -17 -54 -7 -4 -10 -12 -7 -17 4 -6 2 -37
-3 -69 -6 -36 -6 -62 0 -68 10 -10 14 4 30 129 6 50 14 98 16 108 3 9 1 17 -4
17 -5 0 -12 -21 -15 -46z"/>
<path d="M2202 2515 c0 -16 2 -22 5 -12 2 9 2 23 0 30 -3 6 -5 -1 -5 -18z"/>
<path d="M1476 2315 c-3 -8 -1 -15 4 -15 13 0 22 18 11 24 -5 3 -11 -1 -15 -9z"/>
<path d="M2344 2276 c-10 -27 2 -43 14 -19 8 14 9 24 2 28 -6 3 -13 -1 -16 -9z"/>
<path d="M2180 2261 c0 -28 -11 -52 -20 -46 -12 8 -38 -82 -43 -152 -8 -98 14
-78 40 35 27 116 38 182 29 182 -3 0 -6 -9 -6 -19z"/>
<path d="M1702 2170 c0 -14 2 -19 5 -12 2 6 2 18 0 25 -3 6 -5 1 -5 -13z"/>
<path d="M1502 2095 c0 -16 2 -22 5 -12 2 9 2 23 0 30 -3 6 -5 -1 -5 -18z"/>
<path d="M2311 1974 c0 -11 3 -14 6 -6 3 7 2 16 -1 19 -3 4 -6 -2 -5 -13z"/>
<path d="M582 1765 c0 -16 2 -22 5 -12 2 9 2 23 0 30 -3 6 -5 -1 -5 -18z"/>
<path d="M2200 1725 c0 -23 2 -24 20 -13 11 7 20 18 20 25 0 7 -9 13 -20 13
-15 0 -20 -7 -20 -25z"/>
<path d="M2402 1610 c0 -14 2 -19 5 -12 2 6 2 18 0 25 -3 6 -5 1 -5 -13z"/>
<path d="M2426 1611 c-4 -7 -5 -15 -2 -18 9 -9 19 4 14 18 -4 11 -6 11 -12 0z"/>
<path d="M1551 1574 c0 -11 3 -14 6 -6 3 7 2 16 -1 19 -3 4 -6 -2 -5 -13z"/>
<path d="M855 1470 c28 -12 37 -12 30 0 -3 6 -16 10 -28 9 -21 0 -21 -1 -2 -9z"/>
<path d="M905 1460 c3 -5 10 -10 16 -10 5 0 9 5 9 10 0 6 -7 10 -16 10 -8 0
-12 -4 -9 -10z"/>
<path d="M680 1286 c0 -8 5 -18 10 -21 6 -3 10 3 10 14 0 12 -4 21 -10 21 -5
0 -10 -6 -10 -14z"/>
<path d="M539 833 c0 -16 -2 -36 -4 -45 -2 -13 3 -18 20 -18 16 0 24 7 27 25
3 14 1 28 -4 31 -4 3 -6 9 -3 14 3 4 -2 11 -11 14 -23 9 -24 8 -25 -21z"/>
<path d="M2477 843 c-16 -16 -19 -16 -27 -3 -8 11 -9 9 -6 -10 3 -14 5 -27 5
-30 1 -2 8 6 17 18 8 12 22 22 30 22 8 0 14 5 14 10 0 15 -14 12 -33 -7z"/>
<path d="M2436 537 c3 -10 9 -15 12 -12 3 3 0 11 -7 18 -10 9 -11 8 -5 -6z"/>
<path d="M2473 440 c0 -25 2 -35 4 -22 2 12 2 32 0 45 -2 12 -4 2 -4 -23z"/>
<path d="M391 359 c-15 -45 -15 -261 1 -235 11 20 25 266 15 266 -3 0 -10 -14
-16 -31z"/>
<path d="M446 295 c-4 -22 -14 -83 -21 -135 -8 -52 -17 -110 -21 -128 l-6 -32
66 0 c57 0 66 2 63 17 -1 10 -6 23 -9 29 -4 6 -10 41 -14 78 -4 36 -11 69 -15
72 -5 3 -9 23 -9 45 0 21 -5 39 -11 39 -5 0 -8 3 -6 8 3 4 1 16 -3 27 -5 15
-8 11 -14 -20z"/>
<path d="M2471 125 c-1 -60 -4 -76 -12 -65 -9 12 -10 12 -5 -3 3 -10 6 -27 6
-38 0 -10 6 -19 13 -19 9 0 11 21 9 83 -4 116 -9 136 -11 42z"/>
<path d="M2225 10 c-3 -5 -1 -10 4 -10 6 0 11 5 11 10 0 6 -2 10 -4 10 -3 0
-8 -4 -11 -10z"/>
</g>
</svg>
